<svg xmlns:rdf="http://www.w3.org/1999/02/22-rdf-syntax-ns#" xmlns="http://www.w3.org/2000/svg" xmlns:cc="http://creativecommons.org/ns#" xmlns:xlink="http://www.w3.org/1999/xlink" xmlns:dc="http://purl.org/dc/elements/1.1/" xmlns:svg="http://www.w3.org/2000/svg" id="svg2" viewBox="0 0 610 610" version="1.1">
  <g id="layer6">
    <rect id="rect5840" stroke-linejoin="round" ry="1.5381" height="600" width="600" stroke="#4a0" y="5" x="5" stroke-width="10" fill="none"/>
    <path id="path2447" d="m199.38 351.76c2.247-3.7267 4.5824-5.0287 7.9671-7.3926 31.943-22.31 88.988-46.405 88.988-46.405 4.0375-2.1028 9.5466-2.9941 13.838-2.9277l68.05 1.0534c10.273 0.82669 18.603 7.6662 10.776 13.909-18.635 14.25-50 12.538-73.285 18.561-8.7012 1.5737-5.1056 15.535 1.5834 16.627l54.874-5.4874c4.3183-0.43183 8.3821-1.312 12.501-2.5301 29.957-8.8594 65.546-21.428 86.995-35.433 4.3328-2.829 14.152-9.0161 16.812-13.345l34.673-56.425c3.5075-5.708 21.575-15.494 18.305 2.6905-15.33 38.772-33.403 73.391-59.678 117.03-2.5552 4.2435-4.3533 6.3495-8.2139 9.0272-16.412 11.383-40.578 25.351-67.89 40.367-4.2131 2.3164-7.6012 2.6326-12.127 3.4077-37.745 6.4644-87.338-0.43464-122.62 8.3864-24.97 21.7-36.32 104.48-63.7 147.12h-124.04c24.59-71.39 73.42-137.28 116.21-208.24z" fill="#4a0" fill-rule="evenodd"/>
    <path id="path2449" d="m71.429 560h-21.429v-120.54c42.422-41.208 82.873-82.078 121.33-127.54 9.8268 5.0847 25.814 11.966 35.018 15.191-17.39 11.73-90.42 133.99-134.92 232.89z" fill="#4a0" fill-rule="evenodd"/>
    <path id="path2451" d="m60 227.22h443.38c-24.133 25.336-41.459 50.672-95.01 76.008 0 0-0.87775-7.6816-7.077-12.591-18.289-5.2509-77.932-10.205-93.785-7.9635-37.989 6.5866-86.579 40.781-86.579 40.781-77.13-25.93-132.97-58.64-160.92-96.24z" fill="#184b00" fill-rule="evenodd"/>
  </g>
</svg>
